IKResults
version=1
nRows=53
nColumns=11
inDegrees=yes

Units are S.I. units (second, meters, Newtons, ...)
If the header above contains a line with 'inDegrees', this indicates whether rotational values are in degrees (yes) or radians (no).

endheader
time	pelvis_tilt	pelvis_tx	pelvis_ty	hip_flexion_r	knee_angle_r	ankle_angle_r	hip_flexion_l	knee_angle_l	ankle_angle_l	lumbar_extension
      4.80000000	    -23.56759633	     -2.42920368	      0.88877473	     28.43612687	    -15.92436600	     16.18787793	     24.98078698	     -9.86813450	     14.64703059	     24.70015561
      4.83333333	    -23.40447639	     -2.42897374	      0.88895883	     28.25875026	    -15.83003900	     15.97067423	     24.69041015	     -9.63351891	     14.69988704	     24.55206261
      4.86666667	    -23.39781425	     -2.42883011	      0.88894425	     28.32130757	    -15.80910348	     15.81749934	     24.58368001	     -9.41364479	     14.66718639	     24.58733107
      4.90000000	    -23.38259628	     -2.42887482	      0.88900648	     28.47839093	    -15.91497930	     15.72198744	     24.50232560	     -9.23010840	     14.53161009	     24.59176392
      4.93333333	    -23.52600631	     -2.42901789	      0.88890040	     28.87005001	    -16.12904705	     15.67186309	     24.62111626	     -9.10568973	     14.36378567	     24.77678192
      4.96666667	    -23.59795065	     -2.42927611	      0.88889716	     29.23227967	    -16.45887613	     15.73406522	     24.70239605	     -9.03539413	     14.19353627	     24.85452365
      5.00000000	    -24.08954453	     -2.42953480	      0.88826602	     29.95822179	    -16.71834832	     15.82523992	     25.33699047	     -9.19467325	     14.08817433	     25.43503201
      5.03333333	    -24.49713645	     -2.42970313	      0.88767397	     30.51226083	    -16.91937026	     16.03113291	     25.87977719	     -9.34324977	     14.05643785	     25.91293299
      5.06666667	    -24.91327024	     -2.42976368	      0.88705471	     30.98298559	    -17.02087044	     16.25024634	     26.45440935	     -9.53454407	     14.07437977	     26.40276195
      5.10000000	    -25.26352732	     -2.42974401	      0.88655704	     31.33667098	    -17.06774583	     16.44117271	     26.97231106	     -9.74495808	     14.10908197	     26.81149660
      5.13333333	    -25.52620114	     -2.42967450	      0.88621613	     31.59544499	    -17.10314786	     16.58151007	     27.39742160	     -9.95284392	     14.13472346	     27.11669169
      5.16666667	    -25.67364188	     -2.42961862	      0.88610821	     31.75929330	    -17.15642867	     16.64338764	     27.69760193	    -10.14442252	     14.12849070	     27.28499351
      5.20000000	    -25.63643507	     -2.42963687	      0.88639736	     31.74435639	    -17.21060089	     16.59963586	     27.80861162	    -10.32673698	     14.08513964	     27.23161162
      5.23333333	    -25.52438946	     -2.42975340	      0.88690642	     31.64987834	    -17.27153198	     16.53521919	     27.84804744	    -10.51727552	     14.01229840	     27.08595792
      5.26666667	    -25.24699832	     -2.42993633	      0.88766742	     31.34147535	    -17.27917457	     16.47173903	     27.64136735	    -10.57658210	     13.90451967	     26.73190572
      5.30000000	    -25.01580511	     -2.43011939	      0.88824976	     31.03794480	    -17.25558128	     16.46431830	     27.37874707	    -10.46423083	     13.74543071	     26.42929831
      5.33333333	    -24.80141272	     -2.43031790	      0.88859525	     30.71210796	    -17.19937282	     16.53577555	     27.04687771	    -10.21403714	     13.57780180	     26.13834506
      5.36666667	    -24.59236226	     -2.43049237	      0.88871520	     30.34214112	    -17.07166957	     16.62065544	     26.64399603	     -9.84875502	     13.41344296	     25.85245450
      5.40000000	    -24.38140310	     -2.43064031	      0.88866382	     29.95718412	    -16.91861159	     16.69750446	     26.22231806	     -9.47855714	     13.29512200	     25.56246150
      5.43333333	    -24.21841756	     -2.43067387	      0.88849739	     29.61782045	    -16.74459852	     16.75246796	     25.88876623	     -9.20226781	     13.25668833	     25.34112131
      5.46666667	    -24.12851723	     -2.43059310	      0.88829843	     29.36019034	    -16.54782833	     16.80153816	     25.72825922	     -9.12257730	     13.31955642	     25.22042637
      5.50000000	    -24.12825009	     -2.43040441	      0.88808374	     29.23726353	    -16.38714916	     16.84802238	     25.74035008	     -9.20370835	     13.46967241	     25.22489697
      5.53333333	    -24.12527070	     -2.43017709	      0.88799019	     29.15069304	    -16.23505830	     16.84888443	     25.78303079	     -9.33988471	     13.60769127	     25.23592909
      5.56666667	    -24.13499677	     -2.42992671	      0.88797827	     29.12464200	    -16.09872352	     16.71074248	     25.83823276	     -9.45251087	     13.70369289	     25.27513802
      5.60000000	    -24.19788403	     -2.42968768	      0.88797088	     29.21492544	    -16.00028370	     16.37372876	     25.91408628	     -9.47172128	     13.78521600	     25.38767806
      5.63333333	    -24.32162652	     -2.42954486	      0.88790404	     29.46388301	    -16.03210879	     15.91353718	     26.02487312	     -9.42855232	     13.85086258	     25.57086930
      5.66666667	    -24.29640179	     -2.42945023	      0.88797178	     29.58415437	    -16.12720014	     15.51625486	     25.94626036	     -9.36309413	     14.01890863	     25.56779099
      5.70000000	    -24.28889645	     -2.42941513	      0.88797734	     29.67941628	    -16.19675507	     15.22990077	     25.87775836	     -9.32282202	     14.16710201	     25.57245360
      5.73333333	    -24.29820758	     -2.42945111	      0.88791831	     29.73948266	    -16.24304986	     15.13922318	     25.81853261	     -9.29534911	     14.30246692	     25.57627957
      5.76666667	    -24.29148152	     -2.42962649	      0.88779209	     29.80416688	    -16.40702669	     15.37814248	     25.73155383	     -9.26284280	     14.44681296	     25.52944757
      5.80000000	    -24.27715737	     -2.42978871	      0.88764839	     29.81539552	    -16.55167193	     15.81639104	     25.57905939	     -9.13276860	     14.53335204	     25.46332701
      5.83333333	    -24.14298208	     -2.42989500	      0.88768661	     29.65667949	    -16.65131132	     16.37065097	     25.30115462	     -8.99643588	     14.56423080	     25.25581637
      5.86666667	    -24.09666126	     -2.42996417	      0.88763145	     29.61653390	    -16.79553844	     16.89034565	     25.16646029	     -8.94521283	     14.55445335	     25.16935053
      5.90000000	    -24.08430247	     -2.42996407	      0.88755272	     29.61976814	    -16.92271694	     17.24462898	     25.11902272	     -8.98262182	     14.52682587	     25.14307454
      5.93333333	    -24.07333803	     -2.42990287	      0.88751883	     29.57899183	    -16.92908924	     17.35700938	     25.13363206	     -9.09864770	     14.43869698	     25.12961379
      5.96666667	    -24.01677612	     -2.42979944	      0.88754349	     29.45925129	    -16.86072597	     17.27649979	     25.20984470	     -9.37111093	     14.48295610	     25.06675574
      6.00000000	    -23.98324572	     -2.42953792	      0.88756453	     29.28801272	    -16.64536824	     17.07306078	     25.29621126	     -9.56397240	     14.49623904	     25.05291127
      6.03333333	    -23.95383112	     -2.42922133	      0.88758500	     29.10514372	    -16.38163113	     16.79680819	     25.36533882	     -9.67967596	     14.52223823	     25.05997699
      6.06666667	    -23.91502653	     -2.42892199	      0.88760793	     28.94208493	    -16.14081106	     16.53670337	     25.36498528	     -9.66348020	     14.55884754	     25.06939278
      6.10000000	    -23.85378882	     -2.42875950	      0.88767574	     28.83988464	    -16.01129062	     16.35822850	     25.26124071	     -9.49483104	     14.54032757	     25.04717044
      6.13333333	    -23.73555118	     -2.42884937	      0.88784511	     28.81130438	    -16.08527790	     16.30221332	     25.06563729	     -9.28481040	     14.50292340	     24.92812184
      6.16666667	    -23.72840872	     -2.42916351	      0.88791700	     28.97490720	    -16.27513887	     16.33540675	     24.98360693	     -9.09462133	     14.41383547	     24.90852518
      6.20000000	    -23.74328741	     -2.42957286	      0.88800056	     29.12960208	    -16.41963410	     16.45622324	     24.94579326	     -8.96045977	     14.26659695	     24.88649316
      6.23333333	    -23.87721130	     -2.42992063	      0.88790718	     29.33497935	    -16.47487539	     16.57842788	     25.06850244	     -8.90092737	     14.14595113	     24.99884384
      6.26666667	    -23.89259748	     -2.43011170	      0.88794620	     29.31957925	    -16.40756297	     16.71856238	     25.13110839	     -8.95672458	     14.04563611	     24.97486650
      6.30000000	    -23.93463359	     -2.43014933	      0.88790301	     29.24895163	    -16.22903880	     16.76701429	     25.30487809	     -9.17115029	     14.02082039	     25.00476358
      6.33333333	    -23.97038532	     -2.43004098	      0.88784531	     29.14086944	    -16.03600934	     16.74587902	     25.50790919	     -9.44349345	     14.03051288	     25.05808248
      6.36666667	    -24.07622125	     -2.42980153	      0.88771510	     29.11756413	    -15.89552582	     16.68241033	     25.82301796	     -9.78231737	     14.09274762	     25.23110741
      6.40000000	    -24.07757580	     -2.42938479	      0.88782486	     28.96504988	    -15.72508567	     16.54869972	     25.96982874	    -10.01311681	     14.13866335	     25.31110514
      6.43333333	    -24.07168556	     -2.42894802	      0.88796947	     28.84852109	    -15.62530801	     16.44136041	     26.07897144	    -10.20647625	     14.18105145	     25.38814632
      6.46666667	    -24.07431679	     -2.42855702	      0.88807652	     28.76359385	    -15.53169574	     16.34995233	     26.15765441	    -10.35117335	     14.26235832	     25.46329769
      6.50000000	    -24.07374322	     -2.42837234	      0.88818310	     28.70419898	    -15.41638811	     16.21166087	     26.22197870	    -10.47160976	     14.29407616	     25.49731980
      6.53333333	    -24.08409182	     -2.42844083	      0.88826293	     28.69470729	    -15.28498157	     16.03427424	     26.29483768	    -10.56694495	     14.29944197	     25.50339487
